<svg xmlns="http://www.w3.org/2000/svg" xmlns:xlink="http://www.w3.org/1999/xlink" version="1.2" baseProfile="tiny" x="0px" y="0px" viewBox="0 0 100 100" xml:space="preserve"><g><path d="M41.1679688,59.7861328c0.1416016,1.9375,0.8789063,3.4179688,2.190918,4.4023438   c1.4526367,1.0888672,3.3232422,1.3486328,4.777832,1.3486328c1.2675781,0,2.2192383-0.1972656,2.3017578-0.2148438   c0.0117188-0.0029297,0.0239258-0.0058594,0.0356445-0.0097656c7.184082-2.1025391,6.0317383-8.7539063,6.019043-8.8212891   c-0.0273438-0.1494141-0.1240234-0.2763672-0.2578125-0.3476563c-0.1357422-0.0722656-0.2978516-0.078125-0.4355469-0.0175781   c-0.0732422,0.03125-1.9287109,0.7929688-14.2265625,3.1328125C41.3237305,59.3066406,41.1494141,59.5332031,41.1679688,59.7861328   z M50.2124023,64.3476563c-0.2768555,0.0556641-3.9741211,0.75-6.253418-0.9599609   c-0.972168-0.7285156-1.559082-1.8144531-1.7485352-3.2324219c0.0064087-0.0012207,0.012085-0.0023193,0.0184937-0.00354   l1.8403931,2.2545166c0.0957031,0.1171875,0.2387695,0.1835938,0.387207,0.1835938   c0.0322266,0,0.0649414-0.0029297,0.0976563-0.0097656c0.1816406-0.0361328,0.328125-0.1689453,0.3813477-0.3466797   l0.8312378-2.7719727c2.4160156-0.4813232,4.286438-0.8773193,5.7252808-1.1989136l1.7618408,2.0626831   C53.3496094,60.4375,53.4892578,60.5,53.6337891,60.5c0.0332031,0,0.0664063-0.0029297,0.0986328-0.0097656   c0.1777344-0.0361328,0.3222656-0.1650391,0.3779297-0.3378906l0.8718262-2.7333374   c0.2381592-0.0648193,0.4349976-0.1209106,0.5930176-0.1680298C55.6679688,58.7675781,55.4033203,62.8183594,50.2124023,64.3476563   z M43.3443604,59.9367065c0.4536743-0.0877686,0.8898315-0.1728516,1.3125-0.2558594l-0.4088135,1.3630981L43.3443604,59.9367065z    M52.5933838,58.0119629c0.4726563-0.1098022,0.8844604-0.2087402,1.2445679-0.2977905l-0.4072876,1.2780151L52.5933838,58.0119629   z"></path><path d="M94,49h-2.7675171c-0.1552734-2.340271-0.6491089-4.2095337-1.2138672-5.6370239l3.2294312-1.8453979   c0.2402344-0.1367188,0.3232422-0.4423828,0.1865234-0.6821289c-0.1386719-0.2416992-0.4462891-0.3237305-0.6826172-0.1860352   l-3.1317139,1.7895508c-0.7966309-1.6781616-1.5953979-2.5402222-1.6778564-2.6254883   c-0.1914063-0.1977539-0.5078125-0.2021484-0.7050781-0.012207c-0.1992188,0.190918-0.2050781,0.5073242-0.0146484,0.706543   c0.0187988,0.0197144,0.7575073,0.8284912,1.5036621,2.4419556l-2.9743652,1.699646   c-0.2402344,0.1367188-0.3232422,0.4423828-0.1865234,0.6821289C85.6582031,45.4931641,85.8271484,45.5834961,86,45.5834961   c0.0849609,0,0.1699219-0.0209961,0.2480469-0.065918l2.8666382-1.6380615   C89.6155396,45.1906738,90.0530396,46.8921509,90.2081299,49H88c-0.2763672,0-0.5,0.2236328-0.5,0.5S87.7236328,50,88,50h2.2553101   c0.0510254,1.8738403-0.1149292,4.0192871-0.6605835,6.4746094c-0.0595703,0.2695313,0.1103516,0.5361328,0.3798828,0.5966797   c0.0361328,0.0078125,0.0732422,0.0117188,0.1083984,0.0117188c0.2294922,0,0.4365234-0.1582031,0.4882813-0.3916016   C91.1346436,54.156311,91.3133545,51.940979,91.2698975,50H94c0.2763672,0,0.5-0.2236328,0.5-0.5S94.2763672,49,94,49z"></path><path d="M15.0512695,52.0531006l-3.5397339,0.2498169c0.0866089-1.2996826,0.2789307-2.5061035,0.5461426-3.5799561   l2.9662476,0.3571167c0.0200195,0.0024414,0.0400391,0.003418,0.0600586,0.003418   c0.2495117,0,0.465332-0.1865234,0.4960938-0.4404297c0.0327148-0.2739258-0.1625977-0.5229492-0.4370117-0.5561523   l-2.8114624-0.3384399c0.9611206-3.1795044,2.3706055-5.0740356,2.3983765-5.1102905   c0.1679688-0.2192383,0.1269531-0.5327148-0.0917969-0.7011719c-0.2202148-0.168457-0.5332031-0.1279297-0.7006836,0.0913086   c-0.121582,0.1580811-1.6470947,2.2033081-2.6445923,5.5950928L6.1430664,47.003418   c-0.2666016-0.0332031-0.5229492,0.1630859-0.5561523,0.4370117c-0.0327148,0.2739258,0.1625977,0.5229492,0.4370117,0.5561523   l5.0025635,0.6022339c-0.2745972,1.1343994-0.4694824,2.4035645-0.5466309,3.7769165l-4.4285889,0.3125   c-0.2758789,0.0175781-0.484375,0.3601074-0.4667969,0.635498C5.6015625,53.5883789,5.8217773,54,6.0830078,54   c0.0107422,0,0.0219727,0,0.0327148,0l4.3342896-0.3751831c0.0053101,1.9868774,0.2722778,4.1663208,0.9879761,6.5206909   C11.5039063,60.3613281,11.7021484,60.5,11.9165039,60.5c0.0478516,0,0.097168-0.0068359,0.1455078-0.0214844   c0.2641602-0.0800781,0.4130859-0.359375,0.3330078-0.6240234c-0.6918335-2.2755737-0.9378052-4.390625-0.9265747-6.3178101   l3.6472778-0.3156738c0.2758789-0.0175781,0.484375-0.4517822,0.4667969-0.7271729S15.3237305,52.0306396,15.0512695,52.0531006z"></path><path d="M69.9814453,17.9731445c1.8027344-0.2211914,3.9326172-0.7597656,4.3681641-2.0649414   c0.0507813-0.1523438,0.0253906-0.3203125-0.0693359-0.4506836C74.1865234,15.3271484,74.0361328,15.25,73.875,15.25   c-2.2412109,0-4.4902344-0.3735352-6.1201172-0.7275391c2.5009766-0.4726563,5.9746094-1.5239258,6.6015625-3.7626953   c0.0458984-0.1640625,0.0048828-0.3408203-0.1083984-0.4677734c-0.1142578-0.1274414-0.2861328-0.1894531-0.453125-0.1606445   c-4.3652344,0.7080078-14.5957031,2.3652344-17.6123047,1.753418c-1.2568359-0.2529297-2.5253906,0.3520508-3.6757813,1.7529297   c-0.3395996,0.4129028-0.6462402,0.8805542-0.9196167,1.3653564c0.2475586-1.2740479,0.7686768-2.8649292,1.8395386-4.6173096   c0.109375-0.1791992,0.0957031-0.4077148-0.0351563-0.5717773c-0.1298828-0.1645508-0.3515625-0.2299805-0.5498047-0.1630859   l-1.5,0.5c-1.2480469,0.4155273-2.6601563,3.2890625-3.4267578,5.0605469   c-0.4775391-0.9570313-1.4458008-2.2797852-3.3984375-3.5097656c-0.1166992-0.0727539-0.2578125-0.0942383-0.390625-0.0610352   c-0.1333008,0.0341797-0.246582,0.121582-0.3129883,0.2416992c-0.4106445,0.7392578,0.1992188,2.1953125,0.9814453,3.5576172   c-1.4106445-0.8461914-3.1914063-1.4912109-4.5996094-0.6147461C38.3154297,15.9916992,26.4316406,16.0703125,22.0078125,16   c-0.1835938,0.0043945-0.3408203,0.0869141-0.4331055,0.2368164c-0.0922852,0.1494141-0.0996094,0.3364258-0.019043,0.4926758   c0.0693359,0.1337891,1.46875,2.793457,3.6323242,3.6396484c-7.4111328,5.222168-6.5708008,15.8134766-6.5610352,15.9248047   c0.0205078,0.2319336,0.1982422,0.4189453,0.4287109,0.4511719c0.2255859,0.0332031,0.4521484-0.0981445,0.5361328-0.315918   c0.0117188-0.0307617,0.871582-2.2402344,2.3369141-4.171875c-1.4135742,6.0620117,0.7958984,18.3793945,1.2734375,19.3588867   c0.0883789,0.1816406,0.3276367,0.3496094,0.534668,0.3496094c0.019043,0,0.0375977-0.0009766,0.0561523-0.0039063   c0.0917969-0.015625,0.3964844-0.0966797,0.4526367-0.5214844c0.0980835-0.7410278,0.4453735-2.2751465,0.8254395-3.8458252   c-0.0415649,5.9681396,0.6322632,11.7865601,0.6877441,12.2481689c0.543457,2.8691406,2.0297852,5.1259766,4.4169922,6.7089844   C36.2836914,70.6005859,46.402832,69.0869141,49,68.6074219v5.1704102   c-0.256958-0.1096191-0.4949951-0.2194214-0.6923828-0.3256836c-0.1899414-0.1015625-0.4082031-0.1386719-0.6206055-0.1083984   c-4.9824219,0.7382813-5.1020508,15.2460938-5.0205078,19.6748047C42.6767578,93.5644531,43.1225586,94,43.6660156,94   c0.0063477,0,0.0126953,0,0.019043,0c0.5522461-0.0107422,0.9916992-0.4658203,0.9814453-1.0185547   c-0.1464844-7.9179688,0.9794922-16.6308594,3.0600586-17.5830078c1.5390625,0.7314453,4.0673828,1.4658203,4.1826172,1.5   c0.0550537,0.015625,0.1090088,0.006958,0.1640015,0.0131226c0.0420532,0.0047607,0.0818481,0.0105591,0.1246338,0.0099487   c0.1001587-0.0012207,0.1933594-0.0189819,0.2865601-0.048645c0.0194702-0.0061646,0.0393066-0.0025635,0.0585938-0.0099487   c0.1005859-0.0380859,2.2675781-0.8734131,3.5986328-1.4993896c2.0517578,1.0136719,2.9628906,9.7248535,2.625,17.6311035   C58.7431641,93.5463867,59.1708984,94,59.7226563,94c0.0146484,0,0.0292969,0,0.0439453,0   c0.5322266,0,0.9746094-0.3831177,0.9980469-0.9202271c0.1904297-4.4257813,0.4248047-18.8948364-4.5380859-19.7542114   c-0.2128906-0.0371094-0.4316406-0.003479-0.6230469,0.0932007C55.1912231,73.6278687,54.5960693,73.8877563,54,74.1362305   v-5.6342773c2.8876953-0.0126953,16.6337891-0.3945313,18.1523438-6.4638672   c0.0136719-0.0566406,0.0175781-0.1142578,0.0117188-0.1728516c-0.5710449-5.5402832-1.6030884-19.8825684-0.0895386-24.1847534   c4.4309692,6.5949097,8.3919067,13.420105,8.8082886,15.7008667C80.9267578,53.6196289,81.1337891,54,81.375,54   c0.0019531,0,0.0048828,0,0.0078125,0c0.2441406,0,0.4501953-0.3920898,0.4863281-0.6333008   c0.9296875-6.1279297-3.6923828-19.7910156-7.8798828-26.6005859c2.3125,2.1396484,5.1806641,5.4038086,7.0390625,9.6831055   c0.0888672,0.2041016,0.3017578,0.3208008,0.5234375,0.296875c0.2207031-0.0288086,0.3955078-0.199707,0.4296875-0.4199219   C82.7978516,31.0366211,76.5947266,21.1582031,69.9814453,17.9731445z M70.8583984,23.0093384   c-0.0341797-0.0219727-0.0673828-0.0428467-0.1015625-0.0628662c-0.2333984-0.140625-0.5419922-0.0652466-0.6845703,0.1696167   c-0.1425781,0.2353516-0.0683594,0.5424194,0.1669922,0.6859741c0.0058594,0.0039063,0.0605469,0.0383911,0.1572266,0.1018677   c3.7705078,2.5839844,10.2333984,18.3903198,10.5810547,26.7741089c-1.5454712-3.2512817-4.8565674-8.7772217-8.4558105-14.1159668   c-0.017334-0.1362305-0.0856934-0.2650757-0.2072754-0.3491821c-0.0123901-0.0084839-0.0269775-0.0097656-0.0397949-0.0170288   c-4.8867188-7.210022-10.2405396-13.9733276-12.4094238-14.1868896c-4.0791016-0.3969727-6.6865234,3.9405518-6.7958984,4.1251221   c-0.140625,0.2373047-0.0615234,0.5565186,0.1757813,0.6971436c0.2382813,0.140625,0.5439453,0.0870972,0.6855469-0.1497192   c0.0234375-0.0395508,2.3964844-3.9215088,5.8369141-3.5797119c1.7775879,0.1749268,6.8902588,6.6221924,11.6437378,13.5982056   c-2.2808228,4.5249023-0.4219971,23.4931641-0.2511597,25.1779175C69.5615234,67.6738281,53.6611328,67.4970703,53.5078125,67.5   c-0.1542969-0.0097656-0.2626953,0.0498047-0.3583984,0.1435547C53.0537109,67.7382813,53,67.8662109,53,68v6.5437622   c-0.3467407,0.1383667-0.645813,0.255188-0.8563232,0.336792C51.6951904,74.7445679,50.8422241,74.4770508,50,74.1697998V68   c0-0.1513672-0.0683594-0.2939453-0.1860352-0.3886719c-0.1176758-0.0957031-0.2739258-0.1328125-0.4194336-0.0996094   c-0.1206055,0.0253906-12.1137695,2.5498047-18.6660156-1.7939453c-2.1542969-1.4277344-3.4956055-3.4667969-3.9819336-6.0263672   c-0.0162964-0.1380615-1.1240234-9.6930542-0.4736328-16.8435669c0.0011597-0.0043335,0.0055542-0.0211182,0.0058594-0.0221558   c0.0090942-0.0344238,0.0043335-0.0679321,0.0061035-0.1021118c0.2883911-3.0610962,0.9024658-5.668396,2.0739746-6.8754272   c0.0629883-0.0644531,0.1069336-0.1455078,0.1279297-0.2329102l0.6611328-2.7993164   c0.2070313,2.527832,0.8364258,5.5786133,2.5556641,7.3525391C31.84375,40.3139648,32.0610352,40.3608398,32.25,40.2836914   c0.1889648-0.0766602,0.3125-0.2597656,0.3125-0.4633789c0-3.8759766,5.4550781-14.3842773,8.1069336-15.6166992   c1.9165039-0.8925781,3.8500977,1.0493164,5.0058594,2.2080078c0.5083008,0.5097656,0.7631836,0.765625,1.0498047,0.8271484   C47,27.2978516,47.2944336,27.1367188,47.3520508,26.8662109c0.0581055-0.2700195-0.0805664-0.5244141-0.3505859-0.5830078   c-0.0952148-0.0532227-0.3852539-0.3442383-0.6181641-0.5776367c-1.2529297-1.2568359-3.5849609-3.5927734-6.1357422-2.4091797   c-2.9291992,1.3618164-7.6816406,10.5605469-8.5473633,15.2324219c-2.0981445-3.4316406-1.5830078-9.7905273-1.5771484-9.8608398   c0.0224609-0.2612305-0.1601563-0.4951172-0.4189453-0.5366211c-0.2543945-0.0385742-0.5053711,0.1235352-0.565918,0.378418   l-1.5942383,6.7460938c-1.2519531,1.3911743-1.9141846,4.1395874-2.2299194,7.3098755   c-0.0004272,0.0015259-0.0015869,0.0025635-0.0020142,0.0040894c-0.0561523,0.2119141-1.0732422,4.0639648-1.6669922,6.7304688   c-0.8862305-4.7524414-2.2275391-16.7294922,0.2919922-19.0581055c0.1938477-0.1787109,0.2148438-0.4775391,0.0488281-0.6821289   c-0.1665039-0.2045898-0.4628906-0.2451172-0.6777344-0.0927734c-1.6367188,1.1630859-2.8935547,3.081543-3.6860352,4.5527344   c0.1831055-3.4550781,1.3208008-10.125,7.1269531-13.4614258c0.1962891-0.112793,0.2924805-0.34375,0.2338867-0.5625   C26.9248047,19.7773438,26.7265625,19.625,26.5,19.625c-1.6000977,0-2.9379883-1.6259766-3.6035156-2.6142578   c3.6523438,0.0361328,15.6118164,0.0385742,17.8256836-1.3359375c1.7070313-1.0576172,4.7353516,1.3071289,5.7587891,2.3076172   c0.1850586,0.1821289,0.480957,0.1914063,0.6772461,0.0200195c0.1962891-0.1704102,0.2294922-0.4628906,0.0756836-0.6728516   c-1.1533203-1.5742188-2.1123047-3.2612305-2.4492188-4.2280273c2.3486328,1.7836914,2.5913086,3.5595703,2.5932617,3.5756836   c0.0239258,0.2299805,0.2021484,0.4130859,0.4311523,0.4433594c0.2319336,0.0283203,0.4487305-0.0991211,0.5322266-0.3154297   c0.847168-2.1923828,2.4365234-5.4121094,3.3168945-5.7060547l0.2744141-0.0913086   c-1.9416504,3.8016968-1.5544434,6.6894531-1.4765015,7.144043c-0.0664063,0.5167847-0.0511475,0.9698486,0.0824585,1.2905273   c0.1064453,0.2548828,0.402832,0.3769531,0.6538086,0.269043c0.2548828-0.105957,0.375-0.3989258,0.2695313-0.6538086   c-0.0723267-0.1734619-0.0773315-0.4644165-0.0244751-0.8260498c0.0038452-0.0148315,0.0064697-0.0291748,0.0089111-0.0444336   c0.1636353-1.0464478,0.8092651-2.6694336,1.8329468-3.9146729c0.6279297-0.7646484,1.6083984-1.6303711,2.7041016-1.4072266   c2.9775391,0.6015625,12.1347656-0.8066406,16.9589844-1.5830078c-1.5166016,1.7138672-5.9921875,2.4482422-7.8154297,2.5942383   c-0.2382813,0.019043-0.4296875,0.2041016-0.4570313,0.4418945c-0.0263672,0.2373047,0.1181641,0.4609375,0.3457031,0.5332031   c0.1650391,0.0522461,3.7558594,1.1782227,7.7353516,1.3706055c-1.1503906,0.6171875-3.5253906,0.9023438-5.2578125,0.902832   c-0.2558594,0-0.4707031,0.1928711-0.4970703,0.4472656c-0.0273438,0.2543945,0.1425781,0.487793,0.3925781,0.5415039   c6.0273438,1.2929688,12.6337891,10.0869751,13.5585938,15.8843384   C77.3242188,27.288147,71.7001953,23.5440063,70.8583984,23.0093384z"></path><path d="M53.6679688,21.7573242C51,22.8745117,50.9990234,26.1806641,51,26.3168945C51.0029297,26.5917969,51.2255859,27,51.5,27   c0.0009766,0,0.0029297,0,0.0048828,0C51.7802734,27,52.0029297,26.5957031,52,26.3198242   c0-0.0268555-0.0009766-2.8500977,2.0546875-3.7099609c0.2548828-0.1069336,0.3740234-0.3764648,0.2675781-0.6308594   C54.2158203,21.7241211,53.9248047,21.6523438,53.6679688,21.7573242z"></path><path d="M48.090332,23.1845703c0.5112305,0.8251953,0.2993164,2.3154297,0.1743164,2.8198242   c-0.065918,0.2675781,0.097168,0.5390625,0.3647461,0.6054688C48.6699219,26.6201172,48.7104492,26.625,48.7504883,26.625   c0.2241211,0,0.4277344-0.1518555,0.484375-0.3789063c0.0229492-0.090332,0.5444336-2.2304688-0.2929688-3.5854492   c-0.3325195-0.5380859-0.8232422-0.8828125-1.4584961-1.0239258c-0.2651367-0.0541992-0.5366211,0.1108398-0.5966797,0.3798828   c-0.0595703,0.2695313,0.1103516,0.5366211,0.3798828,0.5966797C47.6328125,22.6943359,47.9023438,22.8813477,48.090332,23.1845703   z"></path><path d="M42.6660156,49.6904297c0.0087891-0.3671875-0.184082-0.7089844-0.5024414-0.8916016l-8-4.5830078   c-0.4794922-0.2753906-1.090332-0.1083984-1.3647461,0.3706055s-0.1083984,1.090332,0.3706055,1.3647461l6.3979492,3.6650391   l-5.855957,2.9931641c-0.4916992,0.2519531-0.6865234,0.8535156-0.4355469,1.3457031   C33.453125,54.3007813,33.8037109,54.5,34.1674805,54.5c0.152832,0,0.3085938-0.0351563,0.4541016-0.109375l7.5-3.8334961   C42.4482422,50.3896484,42.6572266,50.0571289,42.6660156,49.6904297z"></path><path d="M57.4873047,48.4350586c-0.2753906,0.2045898-0.4277344,0.5361328-0.4013672,0.8789063   c0.0263672,0.3422852,0.2255859,0.6474609,0.5292969,0.8081055l6.1669922,3.2617188   C63.9316406,53.4628906,64.0917969,53.5,64.2490234,53.5c0.3583984,0,0.7060547-0.1933594,0.8847656-0.5322266   c0.2587891-0.4882813,0.0722656-1.09375-0.4160156-1.3515625l-4.7646484-2.5200195l4.8925781-3.6264648   c0.4433594-0.3286133,0.5361328-0.9550781,0.2080078-1.3989258c-0.3300781-0.4443359-0.9580078-0.5371094-1.3994141-0.2075195   L57.4873047,48.4350586z"></path><path d="M33.6669922,41.5834961c0.1054688,0,0.2119141-0.0332031,0.3022461-0.1020508   C35.4375,40.3657227,39.7148438,37.75,41.8310547,39.0244141c0.2363281,0.1411133,0.5439453,0.0649414,0.6865234-0.1708984   c0.1420898-0.2368164,0.0654297-0.5439453-0.1708984-0.6865234c-3.1357422-1.8862305-8.7456055,2.3378906-8.9829102,2.5185547   c-0.2197266,0.1669922-0.262207,0.480957-0.0952148,0.7006836C33.3666992,41.515625,33.5161133,41.5834961,33.6669922,41.5834961z"></path><path d="M54.6757813,38.9472656c3.8173828-2.9882813,8.7070313,1.5322266,8.7568359,1.578125   c0.0966797,0.0908203,0.2197266,0.1357422,0.3427734,0.1357422c0.1328125,0,0.265625-0.0532227,0.3642578-0.1577148   c0.1884766-0.2006836,0.1796875-0.5170898-0.0214844-0.7060547c-0.0556641-0.0522461-5.5625-5.1567383-10.0595703-1.637207   c-0.2167969,0.1699219-0.2548828,0.484375-0.0849609,0.7016602C54.1445313,39.0800781,54.4580078,39.1171875,54.6757813,38.9472656   z"></path></g></svg>